<svg xmlns="http://www.w3.org/2000/svg" id="Layer_1" data-name="Layer 1" viewBox="0 0 202.884 97.517">
  <defs>
    <style>.cls-1{isolation:isolate;}.cls-2{fill:#004525;fill-rule:evenodd;}.cls-3{fill:#ffe965;}</style>
  </defs>
  <g id="Shape_3" data-name="Shape 3" class="cls-1" transform="matrix(1, 0, 0, 1, 5, -102)">
    <g id="Shape_3-2" data-name="Shape 3">
      <path class="cls-2" d="M14.8,173.6a5.84922,5.84922,0,0,0,2.9-2.9,10.09221,10.09221,0,0,1,.7-1.5c.3-.7.6-1.5.9-2.2a13.90153,13.90153,0,0,1,1.1-2.1,4.61938,4.61938,0,0,1,.7-.7,2.17751,2.17751,0,0,1,.8-.5l2.3-1.1c1.7-.8,2.8-4.4,3.3-6.1,0-.2.3-1-.1-1.1-.3-.1-.8.9-.9,1.1a5.82576,5.82576,0,0,1-1.1,1.5c-.2.1-.4.3-.6.4-.3.2-.6.3-.9.5-.6.3-1.1.6-1.7.9a6.13582,6.13582,0,0,0-1.9,1.7c-.3.4-.5.9-.8,1.3a14.72181,14.72181,0,0,0-1,2.2c-.3.7-.6,1.4-.9,2l-.3.6c0,.1-.1.2-.2.3l-.9.9c-.5.4-.9.8-1.4,1.2-.5.3-1,.6-1.4.9a13.02873,13.02873,0,0,0-1.5,1c-.1.1-.3.2-.4.3-.1,0-.1.1-.2.1-.5.4-1.1.8-1.6,1.2-.2.1-.7.5-.6.8a1.15949,1.15949,0,0,0,1,.4,3.40157,3.40157,0,0,0,1-.1,7.84437,7.84437,0,0,1,1.4-.2c.5-.1,1-.2,1.4-.3A2.0445,2.0445,0,0,1,14.8,173.6Zm-6-13.5a5.54689,5.54689,0,0,0-.6-.8,5.7308,5.7308,0,0,0-1.1-1.1,11.9854,11.9854,0,0,1-1.2-1.1h0l-.1.1a2.65088,2.65088,0,0,0-.5.6L4,160.7l-1,2.4H3c0,.2.6.6.7.7A5.706,5.706,0,0,1,5,165.2c.2.2.3.5.5.7a.75813.75813,0,0,1,.2.4,2.97568,2.97568,0,0,1,.5,1.5c0,.5-.9,1.4-1.2,1.7-.6.6-1.2,1.2-1.8,1.7l-1.9,1.6a6.034,6.034,0,0,0-.8.8l-.4.4a.30415.30415,0,0,0,0,.4c.1.2.4.1.5.1l1.5-.5a12.19883,12.19883,0,0,0,1.7-.7,11.73109,11.73109,0,0,0,1.1-.5,5.08418,5.08418,0,0,0,1.3-.9,4.50757,4.50757,0,0,0,1-1.4,24.77072,24.77072,0,0,0,1.7-3.7,11.93339,11.93339,0,0,0,.6-3.7A5.32456,5.32456,0,0,0,8.8,160.1Zm92.3-.6a3.00769,3.00769,0,0,0,2.2-.8,2.36128,2.36128,0,0,0,.6-.9,1.9295,1.9295,0,0,0,.3-1,4.8686,4.8686,0,0,0-.1-1.2,1.1488,1.1488,0,0,1,1.1-.6c.6,0,1.1-.2,1.1-.9,0-.5-.4-.6-.8-.6a2.43222,2.43222,0,0,0-2,1.1,3.51325,3.51325,0,0,0-.5,2c0,.7-.2,1.2-.9,1.4a2.7683,2.7683,0,0,1-.9.1,1.70162,1.70162,0,0,1-.7.1c-.3,0-.7.1-.7.4a.76387.76387,0,0,0,.2.5A2.30413,2.30413,0,0,0,101.1,159.5Zm62.2-44.3a9.57853,9.57853,0,0,0,2-2.5h0c-.4,0-1.4.8-1.7,1a20.40568,20.40568,0,0,0-2.7,2.3c-.7.7-1.5,1.4-2.2,2.1l-.7.7c-.1.2-.3.3-.4.5a6.89559,6.89559,0,0,1-.4,1h0A51.4628,51.4628,0,0,0,163.3,115.2ZM31.7,172.9a3.44983,3.44983,0,0,0,.9-.8c.2-.2.4-.5.6-.7a14.62884,14.62884,0,0,0,.9-1.3c.1-.1.2-.3.4-.4l.2.5a4.18763,4.18763,0,0,0,.8,2.1,2.40076,2.40076,0,0,0,2,1.2,2.902,2.902,0,0,0,2.2-1.2,8.42093,8.42093,0,0,0,1.1-2.1c.2-.4.3-.8.5-1.2a6.891,6.891,0,0,0,.3-.8,11.62462,11.62462,0,0,1,.4-1.8.77773.77773,0,0,0-.2-.8h0c-.1.1-.1.3-.2.4s-.1.3-.2.4a6.22284,6.22284,0,0,1-.8,1.2,1.42118,1.42118,0,0,1-.6.2,1.94314,1.94314,0,0,1-1.6-.8,2.928,2.928,0,0,1-.7-2.2,3.653,3.653,0,0,1,.3-1.5c.2-.7.4-1.5.6-2.2a.74937.74937,0,0,0,.1-.5.21507.21507,0,0,0-.2-.2c-.3,0-.6.4-.7.6-.2.4-.4.7-.6,1.1l-1,2a17.098,17.098,0,0,1-1.3,2.3,10.91643,10.91643,0,0,1-1.3,1.7c-.7.7-1.4,1.4-2.1,2l-1.8,1.2c-.7.4-1.5.9-2.2,1.3-.3.2-1.6.9-1.6,1.3h0l.4.2h0c.3,0,.6-.1.8-.1l1.5-.3,1.5-.3c.3-.1.6-.1.9-.2C30.9,173.4,31.3,173.2,31.7,172.9ZM142,137.4c.6-.4,1.1-.9,1.7-1.3l4.1-3.2,4.8-3.6c1.4-1.1,2.7-2.1,4-3.3,1.3-1,2.5-2.1,3.7-3.1,1.4-1.2,2.8-2.5,4.1-3.8a35.6366,35.6366,0,0,0,4.3-5.3c.5-.8,1-1.5,1.5-2.3a5.06563,5.06563,0,0,0,.7-1.5v-.7h0a9.95591,9.95591,0,0,0-1.5,1.4c-1,1.1-1.9,2.2-3,3.2a61.385,61.385,0,0,1-4.5,4.3c-1.7,1.6-3.5,3.1-5.3,4.5-2.5,2-5.1,4.1-7.6,6.1-1.2,1-2.4,1.9-3.5,2.9-.4.4-.8.7-1.2,1.1a6.034,6.034,0,0,0-.8.8,12.377,12.377,0,0,0-1.4,1.8,25.57333,25.57333,0,0,0-1.1,2.4h0C141.2,138,141.9,137.4,142,137.4ZM69.2,159.9h0c-.2.1-.3.1-.5.2a1.70162,1.70162,0,0,1-.7.1,7.006,7.006,0,0,1-1.4-.3c-.5-.1-1-.3-1.5-.4a2.76856,2.76856,0,0,0-.9-.1,2.40989,2.40989,0,0,0-1.8.7,4.74126,4.74126,0,0,0-1,1c-.4.5-.8,1.1-1.2,1.7l-2.9,4.6a2.50417,2.50417,0,0,1-1.8-.8,3.10173,3.10173,0,0,1-1-2.4h0c0-.3.1-.6.1-.8a6.4685,6.4685,0,0,1,.4-1.3c.1-.4.3-.8.4-1.2a.40115.40115,0,0,0-.2-.6c-.3-.1-.6.3-.7.5a6.37578,6.37578,0,0,0-.8,1.4l-1.2,2.6a14.00354,14.00354,0,0,1-1,1.6,13.304,13.304,0,0,1-1.4,1.9,19.72773,19.72773,0,0,1-3.4,3c-1.2.8-2.4,1.5-3.6,2.3-.3.2-1,.6-1,1h0a3.32875,3.32875,0,0,0,1.4-.1l1.9-.5c.4-.1.9-.2,1.3-.3a5.63784,5.63784,0,0,0,1.2-.4,6.10905,6.10905,0,0,0,1.4-.7,5.2411,5.2411,0,0,0,1-1.1,13.02873,13.02873,0,0,0,1-1.5c.1-.2.3-.5.4-.7a5.63769,5.63769,0,0,1,.4,1.2,4.86673,4.86673,0,0,0,1.4,2.1,3.80529,3.80529,0,0,0,1.3.9,6.27919,6.27919,0,0,0,1.9.3,7.17655,7.17655,0,0,0,4.5-1.5,15.871,15.871,0,0,0,3.2-3.6l2.6-4a2.69557,2.69557,0,0,1,.7-.8,4.62027,4.62027,0,0,1,.7-.7,10.54036,10.54036,0,0,0,.7-1.1,6.60574,6.60574,0,0,0,.5-1.5A1.0233,1.0233,0,0,0,69.2,159.9Zm-6,5.9a11.90534,11.90534,0,0,1-1.5.9c-.5.2-.9.3-1.4.5a4.329,4.329,0,0,1-1.6.1l2.2-3.4a6.886,6.886,0,0,1,1.1-1.3,2.8368,2.8368,0,0,1,1.7-.7,6.106,6.106,0,0,1,1.3.3,2.38371,2.38371,0,0,1,1.1.6A13.828,13.828,0,0,1,63.2,165.8Zm73.9-6.8a2.17756,2.17756,0,0,0,.5-.8,16.82279,16.82279,0,0,0,1.6-3.3,15.48427,15.48427,0,0,0,1-5.2l.3-6.2a16.94971,16.94971,0,0,1,.1-2.3,9.85314,9.85314,0,0,1,.2-1.7V139c0-.3.1-.6.1-.9h0a.75583.75583,0,0,1-.4-.1h0c-.7,1.2-1.3,2.4-1.9,3.6a13.96836,13.96836,0,0,0-.9,2.9,21.86362,21.86362,0,0,0-.3,3.6v4.5a3.887,3.887,0,0,1-.2,1.5,6.94393,6.94393,0,0,1-.5,1.3,4.863,4.863,0,0,1-1.1,1.4,17.38456,17.38456,0,0,1-1.5,1.3,18.34177,18.34177,0,0,1-3,1.8,22.13359,22.13359,0,0,1-3.5,1.6c-1.7.7-3.5,1.3-5.3,1.9-1,.3-2,.5-2.9.8-1.2.3-2.5.6-3.8.9-2.7.5-5.4.9-8.2,1.2-1.4.2-2.7.3-4.1.4a24.36631,24.36631,0,0,1-2.7.1l-6.7.2c-2.6,0-5.3,0-7.9-.2-1-.1-1.9-.1-2.9-.2-.7-.1-1.4-.1-2.1-.2-1.1-.1-2.1-.3-3.2-.4-.9-.1-1.7-.3-2.6-.4q-1.65-.45-3.3-.9c-.4-.1-.9-.3-1.3-.4-.2,0-.5-.1-.7-.1-.3,0-.3.7-.4.9a10.86864,10.86864,0,0,0-.1,1.8,11.00042,11.00042,0,0,0,.4,3.1,4.26037,4.26037,0,0,0,1.5,2,8.58519,8.58519,0,0,0,3.5,1.2c1.1.2,2.3.2,3.4.3,1.7.1,3.5.1,5.2.1,1,0,2.1-.1,3.1-.1h2.9a112.81143,112.81143,0,0,0,14.2-.9,120.15208,120.15208,0,0,0,13.3-2.6,48.73253,48.73253,0,0,0,11.5-4.4c.5-.3,1-.6,1.6-.9.3-.1.5-.3.8-.4a30.62367,30.62367,0,0,0,2.9-2.1A11.64389,11.64389,0,0,0,137.1,159Zm7.6-2.1h0c-.3,0-.5.4-.6.7-.1.4-.3.8-.4,1.2l-.7,2.1c-.3,1-.7,2-1,3-.1.3-.2.5-.3.8-.1.1-.1.3-.2.5a10.766,10.766,0,0,1-1.8,2.4c-.6.7-1.3,1.3-2,2q-1.2.9-2.4,1.8a7.10647,7.10647,0,0,0-1.5,1.5.43975.43975,0,0,0-.1.5c0,.2.2.2.4.2a.90151.90151,0,0,0,.5-.1c.3-.1.6-.1.9-.2s.6-.1.9-.2c.2,0,.3-.1.5-.1l2.1-.9a4.67224,4.67224,0,0,1,1-.5c.2-.1.4-.3.6-.4a3.12583,3.12583,0,0,0,.9-1.1,16.1784,16.1784,0,0,0,1-1.8,4.17876,4.17876,0,0,0,.4-1,12.13146,12.13146,0,0,0,.5-1.4l.7-2.9c.2-1,.4-1.9.6-2.9a6.75177,6.75177,0,0,0,.2-1.4c0-.3.1-.6.1-1a1.20681,1.20681,0,0,0-.3-.8Zm-81.9,24a9.42719,9.42719,0,0,0-1-1c-.2-.1-.3-.2-.5-.3l-.3-.3h0c-.1.2-.3.3-.4.5-.4.6-.8,1.2-1.2,1.7a16.17929,16.17929,0,0,0-1,1.8,10.90909,10.90909,0,0,1-.6,1.1h0a1.14049,1.14049,0,0,0,.3.6,3.04324,3.04324,0,0,0,.8.8c.4.3.7.7,1.1,1,.1.1.6.6.8.6a1.23448,1.23448,0,0,0,.8-.4,4.70774,4.70774,0,0,0,1.3-1.5,10.92963,10.92963,0,0,0,.8-1.5,2.74477,2.74477,0,0,0,.2-1.3,2.83618,2.83618,0,0,0-.4-1.3C63.2,181.4,63,181.1,62.8,180.9Zm-21.7,0a9.42719,9.42719,0,0,0-1-1c-.2-.1-.3-.2-.5-.3l-.3-.3h0c-.1.2-.3.3-.4.5-.4.6-.8,1.2-1.2,1.7a16.17929,16.17929,0,0,0-1,1.8l-.3.6a1.72869,1.72869,0,0,0,.1-1,2.83607,2.83607,0,0,0-.4-1.3c-.2-.2-.4-.5-.6-.7a9.42719,9.42719,0,0,0-1-1c-.2-.1-.3-.2-.5-.3l-.3-.3h0c-.1.2-.3.3-.4.5-.4.6-.8,1.2-1.2,1.7a16.17929,16.17929,0,0,0-1,1.8,10.91114,10.91114,0,0,1-.6,1.1h0a1.14056,1.14056,0,0,0,.3.6,3.04351,3.04351,0,0,0,.8.8c.4.3.7.7,1.1,1,.1.1.6.6.8.6a1.23448,1.23448,0,0,0,.8-.4,4.70759,4.70759,0,0,0,1.3-1.5c.2-.3.4-.7.6-1a2.18611,2.18611,0,0,0,.3.5,3.04336,3.04336,0,0,0,.8.8c.4.3.7.7,1.1,1,.1.1.6.6.8.6a1.2345,1.2345,0,0,0,.8-.4,4.70774,4.70774,0,0,0,1.3-1.5,10.92963,10.92963,0,0,0,.8-1.5,2.74477,2.74477,0,0,0,.2-1.3,2.83614,2.83614,0,0,0-.4-1.3C41.5,181.4,41.3,181.1,41.1,180.9Zm-16.7,0a9.42719,9.42719,0,0,0-1-1c-.2-.1-.3-.2-.5-.3l-.3-.3h0c-.1.2-.3.3-.4.5-.4.6-.8,1.2-1.2,1.7a16.17929,16.17929,0,0,0-1,1.8,10.90909,10.90909,0,0,1-.6,1.1h0a1.14056,1.14056,0,0,0,.3.6,3.04339,3.04339,0,0,0,.8.8c.4.3.7.7,1.1,1,.1.1.6.6.8.6a1.23448,1.23448,0,0,0,.8-.4,4.70759,4.70759,0,0,0,1.3-1.5,10.93072,10.93072,0,0,0,.8-1.5,2.74477,2.74477,0,0,0,.2-1.3,2.83607,2.83607,0,0,0-.4-1.3C24.8,181.4,24.6,181.1,24.4,180.9Zm-5.4.7c-.2-.2-.4-.5-.6-.7a9.42719,9.42719,0,0,0-1-1c-.2-.1-.3-.2-.5-.3l-.3-.3h0c-.1.2-.3.3-.4.5-.4.6-.8,1.2-1.2,1.7a16.17929,16.17929,0,0,0-1,1.8,10.90909,10.90909,0,0,1-.6,1.1h0a1.14056,1.14056,0,0,0,.3.6,3.04339,3.04339,0,0,0,.8.8c.4.3.7.7,1.1,1,.1.1.6.6.8.6a1.23448,1.23448,0,0,0,.8-.4,4.70759,4.70759,0,0,0,1.3-1.5,10.93072,10.93072,0,0,0,.8-1.5,2.74477,2.74477,0,0,0,.2-1.3A3.44583,3.44583,0,0,0,19,181.6ZM15.4,155c.4.3.7.7,1.1,1,.1.1.6.6.8.6a1.23453,1.23453,0,0,0,.8-.4,4.7078,4.7078,0,0,0,1.3-1.5,10.92963,10.92963,0,0,0,.8-1.5,2.74483,2.74483,0,0,0,.2-1.3,2.83614,2.83614,0,0,0-.4-1.3c-.2-.2-.4-.5-.6-.7a9.42907,9.42907,0,0,0-1-1c-.2-.1-.3-.2-.5-.3l-.3-.3h0c-.1.2-.3.3-.4.5-.4.6-.8,1.2-1.2,1.7a16.1778,16.1778,0,0,0-1,1.8,10.91085,10.91085,0,0,1-.6,1.1h0a1.14059,1.14059,0,0,0,.3.6A2.85484,2.85484,0,0,0,15.4,155Zm175.7-13.4a3.59829,3.59829,0,0,0-2.2-.9,5.813,5.813,0,0,1-2.5-.9,15.58315,15.58315,0,0,1-2-1.6h0c-.1.1-.2.3-.3.4a6.72187,6.72187,0,0,0-.6,1.2l-.4,1.3a10.46066,10.46066,0,0,0-1.3,2.3,5.09186,5.09186,0,0,0-.6,2.1,2.27944,2.27944,0,0,0,.3,1.1,1.75591,1.75591,0,0,0,.4.5c0,.5-.4.6-.9.6l-1.3-.3h0c-.5-.1-1.2.4-1.6.7a7.63664,7.63664,0,0,0-.9.9,6.46809,6.46809,0,0,1-.8.9,4.00166,4.00166,0,0,1-1.2,1,2.93439,2.93439,0,0,1-1.6.4c-.4,0-.9-.1-1.3-.1a3.29335,3.29335,0,0,1-1.3-.7c-.6-.5-.6-2.1-.6-2.8h0l.2-2.4.3-2.9a3.402,3.402,0,0,0,.1-1c0-.1,0-.5-.1-.5s-.2.2-.3.2l-2.4,5a2.34478,2.34478,0,0,0-.2,1.2c0,.6-.1,1.1-.1,1.7v1.6c-.1,2.4-.2,4.7-.3,7.1-.1,2.2-.1,4.4-.1,6.7a25.719,25.719,0,0,1-1,7.8,12.6915,12.6915,0,0,1-5.2,7.2,10.90608,10.90608,0,0,1-3.1,1.4,11.23555,11.23555,0,0,1-3.2.4,8.80326,8.80326,0,0,1-4.8-1.2,5.21035,5.21035,0,0,1-2.6-4.8,13.54449,13.54449,0,0,1,.8-4c.2-.5.4-.9.6-1.4q.45-1.05.9-2.1h0c.2-.3.3-.6.5-.9l1.4-2.8c.3-.8.6-1.6.9-2.5.3-1,.4-2,.6-2.9l.7-5.3.4-3.3.3-2a.76385.76385,0,0,0-.2-.5h0a1.38072,1.38072,0,0,0-.3.4,4.05421,4.05421,0,0,0-.5.9l-1.8,4.3-.7,1.8c-.1,1.3-.3,2.5-.4,3.8-.2,1.6-.5,3.2-.8,4.8-.2.8-.4,1.6-.6,2.3-.3,1-.6,2.1-.9,3.1h0c-.4.9-.8,1.7-1.2,2.6a14.26213,14.26213,0,0,0-.9,2.7,20.741,20.741,0,0,0-.6,5,9.07307,9.07307,0,0,0,1.9,5.9,6.98972,6.98972,0,0,0,5.6,2.3c6,0,9.9-3.9,12.6-8.8a29.40244,29.40244,0,0,0,2.8-6.9,39.95563,39.95563,0,0,0,1.4-10.3l.2-5.2v-.1h.3l1.1.1a5.27038,5.27038,0,0,0,3.6-2l1.3-1.9a3.44963,3.44963,0,0,1,.8-.9,2.01,2.01,0,0,1,.8-.4,2.20164,2.20164,0,0,1,.8-.1,1.70162,1.70162,0,0,1,.7.1h0a1.70162,1.70162,0,0,0,.7.1,1.85413,1.85413,0,0,0,.7-.2,2.17751,2.17751,0,0,0,.8-.5l1-1,.9-.9a2.65166,2.65166,0,0,1,.6-.5,3.59965,3.59965,0,0,1,2.2-.7c.3,0,.6.1.9.1h.9a3.33741,3.33741,0,0,0,2.3-.9,6.09019,6.09019,0,0,0,1.3-3.1A2.43037,2.43037,0,0,0,191.1,141.6Zm-5.4,3.2a2.66281,2.66281,0,0,1-1.2.3,3.07949,3.07949,0,0,1-1.3-.3c-.3-.2-.7-.4-.7-.8a2.23241,2.23241,0,0,1,.6-1.3,1.85473,1.85473,0,0,1,1.2-.7c1.4,0,1.9.8,1.9,2.1A.66623.66623,0,0,1,185.7,144.8Zm3.3.5a7.56794,7.56794,0,0,1-1.5-.1.66116.66116,0,0,1-.6-.7,5.00933,5.00933,0,0,1,.7-.8l.6-.6a4.07477,4.07477,0,0,1,1.8.5c.3.2.6.4.6.8C190.5,145.2,189.6,145.3,189,145.3Zm-19.4-12.8a16.17941,16.17941,0,0,0-1,1.8,10.90681,10.90681,0,0,1-.6,1.1h0a1.14059,1.14059,0,0,0,.3.6,3.04324,3.04324,0,0,0,.8.8c.4.3.7.7,1.1,1,.1.1.6.6.8.6a1.2345,1.2345,0,0,0,.8-.4,4.70759,4.70759,0,0,0,1.3-1.5c.2-.3.4-.7.6-1a2.18553,2.18553,0,0,0,.3.5,3.04339,3.04339,0,0,0,.8.8c.4.3.7.7,1.1,1,.1.1.6.6.8.6a1.23448,1.23448,0,0,0,.8-.4,4.70759,4.70759,0,0,0,1.3-1.5,10.92963,10.92963,0,0,0,.8-1.5,2.74477,2.74477,0,0,0,.2-1.3,2.83618,2.83618,0,0,0-.4-1.3c-.2-.2-.4-.5-.6-.7a9.42813,9.42813,0,0,0-1-1c-.2-.1-.3-.2-.5-.3l-.3-.3h0c-.1.2-.3.3-.4.5-.4.6-.8,1.2-1.2,1.7a16.18163,16.18163,0,0,0-1,1.8l-.3.6a1.7287,1.7287,0,0,0,.1-1,2.83618,2.83618,0,0,0-.4-1.3c-.2-.2-.4-.5-.6-.7a9.42908,9.42908,0,0,0-1-1c-.2-.1-.3-.2-.5-.3l-.3-.3h0c-.1.2-.3.3-.4.5A18.19021,18.19021,0,0,0,169.6,132.5Z"></path>
    </g>
  </g>
</svg>