<svg xmlns="http://www.w3.org/2000/svg" id="Layer_1" data-name="Layer 1" viewBox="0 0 193.10001 206.2"><defs><style>.cls-1{isolation:isolate;}.cls-2{fill:#004525;fill-rule:evenodd;}.cls-3{fill:#ffe965;}</style></defs><g id="Shape_6" data-name="Shape 6" class="cls-1"><g id="Shape_6-2" data-name="Shape 6"><path class="cls-2" d="M68.9,201.3a.9843.9843,0,0,1,.8.3,1.13551,1.13551,0,0,1,.3.8v1.7a.66114.66114,0,0,1-.6.7,3.74953,3.74953,0,0,1-1.1.1,1.884,1.884,0,0,1-.8-.2,2.58834,2.58834,0,0,1-1.2-1.7,8.80494,8.80494,0,0,1-.3-2.6,9.277,9.277,0,0,1,.3-2.6,2.88061,2.88061,0,0,1,1.2-1.7,2.35327,2.35327,0,0,1,.8-.2,3.45739,3.45739,0,0,1,1.2.3,3.05076,3.05076,0,0,1,1.3,1,4.35467,4.35467,0,0,1,1,1.6h.4v-3.2h-.4a.34913.34913,0,0,0-.1.2c0,.1-.1.2-.2.3a.36738.36738,0,0,1-.3.1h-.3a7.59682,7.59682,0,0,1-1.1-.4,5.90141,5.90141,0,0,0-1.4-.2,5.14427,5.14427,0,0,0-2.8.9,3.63822,3.63822,0,0,0-1.4,1.6,5.54,5.54,0,0,0,0,4.6,3.90685,3.90685,0,0,0,1.4,1.7,4.90148,4.90148,0,0,0,2.8.9,4.51188,4.51188,0,0,0,1.3-.1,7.84448,7.84448,0,0,0,1.4-.2,1.93224,1.93224,0,0,0,1.1-.4v-2.3a.9843.9843,0,0,1,.3-.8,1.13553,1.13553,0,0,1,.8-.3v-.3H68.9v.4ZM62,204.4l-2.6-3.8a2.88246,2.88246,0,0,0,1.9-1.2,1.68943,1.68943,0,0,0,.3-1,2.03512,2.03512,0,0,0-.6-1.5,2.64906,2.64906,0,0,0-1.4-.7,11.01792,11.01792,0,0,0-1.8-.2H53.5v.3a.9843.9843,0,0,1,.8.3,1.13551,1.13551,0,0,1,.3.8v6.3a.98429.98429,0,0,1-.3.8,1.13548,1.13548,0,0,1-.8.3v.3h4.4v-.3a.9843.9843,0,0,1-.8-.3,1.1355,1.1355,0,0,1-.3-.8v-2.9h.3l2.8,4.3h2.7v-.3c-.1,0-.3,0-.3-.1A.74707.74707,0,0,1,62,204.4Zm-2.8-5a1.59585,1.59585,0,0,1-.7.9,3.72942,3.72942,0,0,1-1.2.2h-.4V197a.6338.6338,0,0,1,.5-.6,1.94984,1.94984,0,0,1,1.8.8,2.872,2.872,0,0,1,.2,1.2C59.3,198.8,59.3,199.1,59.2,199.4Zm-7.3,4.9L48.4,196H48l-3.4,8.1a2.146,2.146,0,0,1-.4.7,1.4213,1.4213,0,0,1-.6.2v.3h2.7V205c-.7,0-1.1-.2-1.1-.7a.75591.75591,0,0,1,.1-.4l.5-1.2h3.1l.6,1.5c0,.1.1.2.1.3q0,.6-1.2.6v.3h4.4v-.3A1.76478,1.76478,0,0,1,51.9,204.3ZM46.1,202l1.3-3.3,1.4,3.3Zm-18.4.2a4.3315,4.3315,0,0,0-.1.5c-.1.2-.1.3-.2.5a.99841.99841,0,0,1-.4.5,3.37091,3.37091,0,0,1-2.7.9H22.7l5-8.4v-.3H20.8l-.3,2.8h.3a3.65293,3.65293,0,0,1,.7-1.4,1.53279,1.53279,0,0,1,1-.7,4.16406,4.16406,0,0,1,1.7-.2h1l-5,8.4v.3h7.7l.3-3.3h-.4A.75586.75586,0,0,0,27.7,202.2Zm-9.4,2.1L14.8,196h-.4L11,204.1a2.14584,2.14584,0,0,1-.4.7,1.4213,1.4213,0,0,1-.6.2v.3h2.7V205c-.7,0-1.1-.2-1.1-.7a.75591.75591,0,0,1,.1-.4l.5-1.2h3.1l.6,1.5c0,.1.1.2.1.3q0,.6-1.2.6v.3h4.4v-.3C18.8,204.9,18.4,204.7,18.3,204.3ZM12.5,202l1.3-3.3,1.4,3.3Zm20.7-6.1H29v.3a.98433.98433,0,0,1,.8.3,1.13551,1.13551,0,0,1,.3.8v6.4a.9843.9843,0,0,1-.3.8,1.13551,1.13551,0,0,1-.8.3v.3h4.6a4.643,4.643,0,0,0,2.9-1,4.34444,4.34444,0,0,0,1.2-1.7,5.2223,5.2223,0,0,0,.4-2.1,4.67114,4.67114,0,0,0-.3-1.7C37,196.8,35.5,195.9,33.2,195.9Zm2.2,7.1a5.38794,5.38794,0,0,1-.7,1.3,2.575,2.575,0,0,1-1.8.5c-.3,0-.4,0-.5-.1s-.1-.3-.1-.7v-6.7c0-.4,0-.6.1-.7s.2-.1.5-.1a3.10962,3.10962,0,0,1,1.1.1,2.36134,2.36134,0,0,1,.9.6,3.65323,3.65323,0,0,1,.7,1.4,5.84491,5.84491,0,0,1,.2,1.9A10.05385,10.05385,0,0,1,35.4,203Zm39.5-1.4h5.8v-1.3H74.9ZM6.3,196.2c.7,0,1.1.2,1.1.6a1.8539,1.8539,0,0,1-.2.7l-1.8,2.9-1.9-3.5a.3491.3491,0,0,0-.1-.2c0-.3.4-.5,1.1-.5v-.3H0v.3a1.20933,1.20933,0,0,1,.9.6l2.6,4.7v2.1c0,.8-.4,1.1-1.2,1.1v.3H7v-.3c-.8,0-1.3-.4-1.3-1.1V201l2.6-4.2a1.205,1.205,0,0,1,.5-.5,1.42118,1.42118,0,0,1,.6-.2v-.3h-3v.4Zm157.4.5a4.9015,4.9015,0,0,0-2.8-.9,5.14432,5.14432,0,0,0-2.8.9,3.63782,3.63782,0,0,0-1.4,1.6,5.54,5.54,0,0,0,0,4.6,3.90678,3.90678,0,0,0,1.4,1.7,4.90145,4.90145,0,0,0,2.8.9,5.14432,5.14432,0,0,0,2.8-.9,3.638,3.638,0,0,0,1.4-1.6,5.54,5.54,0,0,0,0-4.6A3.41327,3.41327,0,0,0,163.7,196.7Zm-.7,6.5a2.88067,2.88067,0,0,1-1.2,1.7,1.70008,1.70008,0,0,1-1.6,0,2.66771,2.66771,0,0,1-1.3-1.7,9.27739,9.27739,0,0,1-.3-2.6,9.78064,9.78064,0,0,1,.3-2.6,2.62112,2.62112,0,0,1,1.3-1.7,1.7,1.7,0,0,1,1.6,0A2.58832,2.58832,0,0,1,163,198a8.80487,8.80487,0,0,1,.3,2.6A5.02631,5.02631,0,0,1,163,203.2Zm3.7-4.5h.3a1.08718,1.08718,0,0,1,.1-.5c.1-.2.1-.4.2-.6a1.33324,1.33324,0,0,1,.5-.6,1.76907,1.76907,0,0,1,.8-.5,4.12033,4.12033,0,0,1,1.2-.1v7.4a.98432.98432,0,0,1-.3.8,1.1355,1.1355,0,0,1-.8.3v.3h4.4v-.3a.9843.9843,0,0,1-.8-.3,1.13551,1.13551,0,0,1-.3-.8v-7.4a4.12041,4.12041,0,0,1,1.2.1,1.37409,1.37409,0,0,1,.8.5c.2.2.4.4.4.6a1.42131,1.42131,0,0,1,.2.6,4.3315,4.3315,0,0,0,.1.5h.3v-2.8h-8.2v2.8Zm-15.9-2.5a.98436.98436,0,0,1,.8.3,1.13555,1.13555,0,0,1,.3.8V200h-3.3v-2.7a.98432.98432,0,0,1,.3-.8,1.13554,1.13554,0,0,1,.8-.3v-.3h-4.4v.3a.98435.98435,0,0,1,.8.3,1.13551,1.13551,0,0,1,.3.8v6.3a.9843.9843,0,0,1-.3.8,1.13551,1.13551,0,0,1-.8.3v.3h4.4v-.3a.98432.98432,0,0,1-.8-.3,1.13548,1.13548,0,0,1-.3-.8v-3h3.3v3a.98433.98433,0,0,1-.3.8,1.13552,1.13552,0,0,1-.8.3v.3h4.4v-.3a.98433.98433,0,0,1-.8-.3,1.13553,1.13553,0,0,1-.3-.8v-6.3a.98436.98436,0,0,1,.3-.8,1.13555,1.13555,0,0,1,.8-.3v-.3h-4.4Zm-15.9-.3h-4.2v.3a.98435.98435,0,0,1,.8.3,1.13551,1.13551,0,0,1,.3.8v6.4a.9843.9843,0,0,1-.3.8,1.13551,1.13551,0,0,1-.8.3v.3h4.6a4.643,4.643,0,0,0,2.9-1,4.34442,4.34442,0,0,0,1.2-1.7,5.22213,5.22213,0,0,0,.4-2.1,4.67114,4.67114,0,0,0-.3-1.7C138.7,196.8,137.2,195.9,134.9,195.9Zm2.2,7.1a5.38794,5.38794,0,0,1-.7,1.3,2.575,2.575,0,0,1-1.8.5c-.3,0-.4,0-.5-.1s-.1-.3-.1-.7v-6.7c0-.4,0-.6.1-.7s.2-.1.5-.1a3.10965,3.10965,0,0,1,1.1.1,2.3612,2.3612,0,0,1,.9.6,3.65309,3.65309,0,0,1,.7,1.4,5.84491,5.84491,0,0,1,.2,1.9A10.05431,10.05431,0,0,1,137.1,203Zm55.8-.9a6.75752,6.75752,0,0,1-.8,1.5,1.77927,1.77927,0,0,1-1.1.8,3.98467,3.98467,0,0,1-1.7.3,1.32993,1.32993,0,0,1-.8-.3,1.01222,1.01222,0,0,1-.4-.7v-6.4a.98436.98436,0,0,1,.3-.8,1.13555,1.13555,0,0,1,.8-.3v-.3h-4.4v.3a.98436.98436,0,0,1,.8.3,1.13555,1.13555,0,0,1,.3.8v6.4a.98433.98433,0,0,1-.3.8,1.13552,1.13552,0,0,1-.8.3v.3h7.8l.5-3.1h-.2Zm-104,1.7a2.8362,2.8362,0,0,1-1.1.8,3.17816,3.17816,0,0,1-1.4.2h-.5c-.3,0-.6-.1-.6-.2-.1-.1-.1-.4-.1-.7v-3.1a2.8723,2.8723,0,0,1,1.2.2,1.02423,1.02423,0,0,1,.6.5c.1.3.3.7.5,1.3h.3v-4.5h-.3a5.88931,5.88931,0,0,1-.5,1.3c-.1.3-.3.4-.6.5a3.72942,3.72942,0,0,1-1.2.2v-3.1c0-.4,0-.6.1-.7s.2-.1.5-.1H87a2.13259,2.13259,0,0,1,1.2.3,2.33614,2.33614,0,0,1,.7.7,1.32985,1.32985,0,0,1,.3.8c.1.3.1.5.2.6h.3V196H82v.3a.9843.9843,0,0,1,.8.3,1.13551,1.13551,0,0,1,.3.8v6.4a.98429.98429,0,0,1-.3.8,1.13548,1.13548,0,0,1-.8.3v.3h7.8l.6-2.8H90A8.53825,8.53825,0,0,1,88.9,203.8Zm93.9,0a2.83613,2.83613,0,0,1-1.1.8,3.17816,3.17816,0,0,1-1.4.2h-.5c-.3,0-.6-.1-.6-.2-.1-.1-.1-.4-.1-.7v-3.1a2.87227,2.87227,0,0,1,1.2.2,1.02423,1.02423,0,0,1,.6.5c.1.3.3.7.5,1.3h.3v-4.5h-.3a5.88881,5.88881,0,0,1-.5,1.3c-.1.3-.3.4-.6.5a3.72947,3.72947,0,0,1-1.2.2v-3.1c0-.4,0-.6.1-.7s.2-.1.5-.1h1.2a2.13259,2.13259,0,0,1,1.2.3,2.33628,2.33628,0,0,1,.7.7,1.3299,1.3299,0,0,1,.3.8c.1.3.1.5.2.6h.3V196h-7.7v.3a.98432.98432,0,0,1,.8.3,1.13554,1.13554,0,0,1,.3.8v6.4a.98435.98435,0,0,1-.3.8,1.13551,1.13551,0,0,1-.8.3v.3h7.8l.6-2.8h-.4A8.5388,8.5388,0,0,1,182.8,203.8Zm-57.5-7.6c.9,0,1.3.4,1.3,1.1v6.3c0,.8-.4,1.1-1.3,1.1v.3h4.8v-.3c-.9,0-1.3-.4-1.3-1.1v-6.3c0-.8.4-1.1,1.3-1.1v-.3h-4.8Zm-33.5,5.4h5.8v-1.3H91.8Zm8.8-5.4a.98433.98433,0,0,1,.8.3,1.13551,1.13551,0,0,1,.3.8v7.6a.7785.7785,0,0,1-.3.7.73473.73473,0,0,1-.6.2h-.3c-.3-.1-.4-.2-.4-.4a.774.774,0,0,1,.1-.3,1.74007,1.74007,0,0,0,.3-.7.86437.86437,0,0,0-.3-.6.90784.90784,0,0,0-.7-.3,1.42146,1.42146,0,0,0-.6.2.98429.98429,0,0,0-.3.8v.4a1.70719,1.70719,0,0,0,.9,1,2.66278,2.66278,0,0,0,1.2.3,3.92589,3.92589,0,0,0,1.4-.3,2.28717,2.28717,0,0,0,1.3-1,3.3394,3.3394,0,0,0,.3-1.5v-6.3a.98429.98429,0,0,1,.3-.8,1.13546,1.13546,0,0,1,.8-.3v-.3h-4.4v.5Zm13.3,8.1-3.5-8.3H110l-3.4,8.1a2.14639,2.14639,0,0,1-.4.7,1.42121,1.42121,0,0,1-.6.2v.3h2.7V205c-.7,0-1.1-.2-1.1-.7a.75591.75591,0,0,1,.1-.4l.5-1.2h3.1l.6,1.5c0,.1.1.2.1.3q0,.6-1.2.6v.3h4.4v-.3A1.7648,1.7648,0,0,1,113.9,204.3Zm-5.8-2.3,1.3-3.3,1.4,3.3Zm11.6-6.1h-4.2v.3a.98433.98433,0,0,1,.8.3,1.13552,1.13552,0,0,1,.3.8v6.4a.98431.98431,0,0,1-.3.8,1.13549,1.13549,0,0,1-.8.3v.3h4.6a4.64294,4.64294,0,0,0,2.9-1,4.34454,4.34454,0,0,0,1.2-1.7,5.22229,5.22229,0,0,0,.4-2.1,4.67135,4.67135,0,0,0-.3-1.7C123.5,196.8,122,195.9,119.7,195.9Zm2.2,7.1a5.38757,5.38757,0,0,1-.7,1.3,2.575,2.575,0,0,1-1.8.5c-.3,0-.4,0-.5-.1s-.1-.3-.1-.7v-6.7c0-.4,0-.6.1-.7s.2-.1.5-.1a3.10971,3.10971,0,0,1,1.1.1,2.36117,2.36117,0,0,1,.9.6,3.65309,3.65309,0,0,1,.7,1.4,5.84491,5.84491,0,0,1,.2,1.9A10.05247,10.05247,0,0,1,121.9,203Z"></path></g></g><g id="Shape_3" data-name="Shape 3" class="cls-1"><g id="Shape_3-2" data-name="Shape 3"><path class="cls-2" d="M14.8,173.6a5.84922,5.84922,0,0,0,2.9-2.9,10.09221,10.09221,0,0,1,.7-1.5c.3-.7.6-1.5.9-2.2a13.90153,13.90153,0,0,1,1.1-2.1,4.61938,4.61938,0,0,1,.7-.7,2.17751,2.17751,0,0,1,.8-.5l2.3-1.1c1.7-.8,2.8-4.4,3.3-6.1,0-.2.3-1-.1-1.1-.3-.1-.8.9-.9,1.1a5.82576,5.82576,0,0,1-1.1,1.5c-.2.1-.4.3-.6.4-.3.2-.6.3-.9.5-.6.3-1.1.6-1.7.9a6.13582,6.13582,0,0,0-1.9,1.7c-.3.4-.5.9-.8,1.3a14.72181,14.72181,0,0,0-1,2.2c-.3.7-.6,1.4-.9,2l-.3.6c0,.1-.1.2-.2.3l-.9.9c-.5.4-.9.8-1.4,1.2-.5.3-1,.6-1.4.9a13.02873,13.02873,0,0,0-1.5,1c-.1.1-.3.2-.4.3-.1,0-.1.1-.2.1-.5.4-1.1.8-1.6,1.2-.2.1-.7.5-.6.8a1.15949,1.15949,0,0,0,1,.4,3.40157,3.40157,0,0,0,1-.1,7.84437,7.84437,0,0,1,1.4-.2c.5-.1,1-.2,1.4-.3A2.0445,2.0445,0,0,1,14.8,173.6Zm-6-13.5a5.54689,5.54689,0,0,0-.6-.8,5.7308,5.7308,0,0,0-1.1-1.1,11.9854,11.9854,0,0,1-1.2-1.1h0l-.1.1a2.65088,2.65088,0,0,0-.5.6L4,160.7l-1,2.4H3c0,.2.6.6.7.7A5.706,5.706,0,0,1,5,165.2c.2.2.3.5.5.7a.75813.75813,0,0,1,.2.4,2.97568,2.97568,0,0,1,.5,1.5c0,.5-.9,1.4-1.2,1.7-.6.6-1.2,1.2-1.8,1.7l-1.9,1.6a6.034,6.034,0,0,0-.8.8l-.4.4a.30415.30415,0,0,0,0,.4c.1.2.4.1.5.1l1.5-.5a12.19883,12.19883,0,0,0,1.7-.7,11.73109,11.73109,0,0,0,1.1-.5,5.08418,5.08418,0,0,0,1.3-.9,4.50757,4.50757,0,0,0,1-1.4,24.77072,24.77072,0,0,0,1.7-3.7,11.93339,11.93339,0,0,0,.6-3.7A5.32456,5.32456,0,0,0,8.8,160.1Zm92.3-.6a3.00769,3.00769,0,0,0,2.2-.8,2.36128,2.36128,0,0,0,.6-.9,1.9295,1.9295,0,0,0,.3-1,4.8686,4.8686,0,0,0-.1-1.2,1.1488,1.1488,0,0,1,1.1-.6c.6,0,1.1-.2,1.1-.9,0-.5-.4-.6-.8-.6a2.43222,2.43222,0,0,0-2,1.1,3.51325,3.51325,0,0,0-.5,2c0,.7-.2,1.2-.9,1.4a2.7683,2.7683,0,0,1-.9.1,1.70162,1.70162,0,0,1-.7.1c-.3,0-.7.1-.7.4a.76387.76387,0,0,0,.2.5A2.30413,2.30413,0,0,0,101.1,159.5Zm62.2-44.3a9.57853,9.57853,0,0,0,2-2.5h0c-.4,0-1.4.8-1.7,1a20.40568,20.40568,0,0,0-2.7,2.3c-.7.7-1.5,1.4-2.2,2.1l-.7.7c-.1.2-.3.3-.4.5a6.89559,6.89559,0,0,1-.4,1h0A51.4628,51.4628,0,0,0,163.3,115.2ZM31.7,172.9a3.44983,3.44983,0,0,0,.9-.8c.2-.2.4-.5.6-.7a14.62884,14.62884,0,0,0,.9-1.3c.1-.1.2-.3.4-.4l.2.5a4.18763,4.18763,0,0,0,.8,2.1,2.40076,2.40076,0,0,0,2,1.2,2.902,2.902,0,0,0,2.2-1.2,8.42093,8.42093,0,0,0,1.1-2.1c.2-.4.3-.8.5-1.2a6.891,6.891,0,0,0,.3-.8,11.62462,11.62462,0,0,1,.4-1.8.77773.77773,0,0,0-.2-.8h0c-.1.1-.1.3-.2.4s-.1.3-.2.4a6.22284,6.22284,0,0,1-.8,1.2,1.42118,1.42118,0,0,1-.6.2,1.94314,1.94314,0,0,1-1.6-.8,2.928,2.928,0,0,1-.7-2.2,3.653,3.653,0,0,1,.3-1.5c.2-.7.4-1.5.6-2.2a.74937.74937,0,0,0,.1-.5.21507.21507,0,0,0-.2-.2c-.3,0-.6.4-.7.6-.2.4-.4.7-.6,1.1l-1,2a17.098,17.098,0,0,1-1.3,2.3,10.91643,10.91643,0,0,1-1.3,1.7c-.7.7-1.4,1.4-2.1,2l-1.8,1.2c-.7.4-1.5.9-2.2,1.3-.3.2-1.6.9-1.6,1.3h0l.4.2h0c.3,0,.6-.1.8-.1l1.5-.3,1.5-.3c.3-.1.6-.1.9-.2C30.9,173.4,31.3,173.2,31.7,172.9ZM142,137.4c.6-.4,1.1-.9,1.7-1.3l4.1-3.2,4.8-3.6c1.4-1.1,2.7-2.1,4-3.3,1.3-1,2.5-2.1,3.7-3.1,1.4-1.2,2.8-2.5,4.1-3.8a35.6366,35.6366,0,0,0,4.3-5.3c.5-.8,1-1.5,1.5-2.3a5.06563,5.06563,0,0,0,.7-1.5v-.7h0a9.95591,9.95591,0,0,0-1.5,1.4c-1,1.1-1.9,2.2-3,3.2a61.385,61.385,0,0,1-4.5,4.3c-1.7,1.6-3.5,3.1-5.3,4.5-2.5,2-5.1,4.1-7.6,6.1-1.2,1-2.4,1.9-3.5,2.9-.4.4-.8.7-1.2,1.1a6.034,6.034,0,0,0-.8.8,12.377,12.377,0,0,0-1.4,1.8,25.57333,25.57333,0,0,0-1.1,2.4h0C141.2,138,141.9,137.4,142,137.4ZM69.2,159.9h0c-.2.1-.3.1-.5.2a1.70162,1.70162,0,0,1-.7.1,7.006,7.006,0,0,1-1.4-.3c-.5-.1-1-.3-1.5-.4a2.76856,2.76856,0,0,0-.9-.1,2.40989,2.40989,0,0,0-1.8.7,4.74126,4.74126,0,0,0-1,1c-.4.5-.8,1.1-1.2,1.7l-2.9,4.6a2.50417,2.50417,0,0,1-1.8-.8,3.10173,3.10173,0,0,1-1-2.4h0c0-.3.1-.6.1-.8a6.4685,6.4685,0,0,1,.4-1.3c.1-.4.3-.8.4-1.2a.40115.40115,0,0,0-.2-.6c-.3-.1-.6.3-.7.5a6.37578,6.37578,0,0,0-.8,1.4l-1.2,2.6a14.00354,14.00354,0,0,1-1,1.6,13.304,13.304,0,0,1-1.4,1.9,19.72773,19.72773,0,0,1-3.4,3c-1.2.8-2.4,1.5-3.6,2.3-.3.2-1,.6-1,1h0a3.32875,3.32875,0,0,0,1.4-.1l1.9-.5c.4-.1.9-.2,1.3-.3a5.63784,5.63784,0,0,0,1.2-.4,6.10905,6.10905,0,0,0,1.4-.7,5.2411,5.2411,0,0,0,1-1.1,13.02873,13.02873,0,0,0,1-1.5c.1-.2.3-.5.4-.7a5.63769,5.63769,0,0,1,.4,1.2,4.86673,4.86673,0,0,0,1.4,2.1,3.80529,3.80529,0,0,0,1.3.9,6.27919,6.27919,0,0,0,1.9.3,7.17655,7.17655,0,0,0,4.5-1.5,15.871,15.871,0,0,0,3.2-3.6l2.6-4a2.69557,2.69557,0,0,1,.7-.8,4.62027,4.62027,0,0,1,.7-.7,10.54036,10.54036,0,0,0,.7-1.1,6.60574,6.60574,0,0,0,.5-1.5A1.0233,1.0233,0,0,0,69.2,159.9Zm-6,5.9a11.90534,11.90534,0,0,1-1.5.9c-.5.2-.9.3-1.4.5a4.329,4.329,0,0,1-1.6.1l2.2-3.4a6.886,6.886,0,0,1,1.1-1.3,2.8368,2.8368,0,0,1,1.7-.7,6.106,6.106,0,0,1,1.3.3,2.38371,2.38371,0,0,1,1.1.6A13.828,13.828,0,0,1,63.2,165.8Zm73.9-6.8a2.17756,2.17756,0,0,0,.5-.8,16.82279,16.82279,0,0,0,1.6-3.3,15.48427,15.48427,0,0,0,1-5.2l.3-6.2a16.94971,16.94971,0,0,1,.1-2.3,9.85314,9.85314,0,0,1,.2-1.7V139c0-.3.1-.6.1-.9h0a.75583.75583,0,0,1-.4-.1h0c-.7,1.2-1.3,2.4-1.9,3.6a13.96836,13.96836,0,0,0-.9,2.9,21.86362,21.86362,0,0,0-.3,3.6v4.5a3.887,3.887,0,0,1-.2,1.5,6.94393,6.94393,0,0,1-.5,1.3,4.863,4.863,0,0,1-1.1,1.4,17.38456,17.38456,0,0,1-1.5,1.3,18.34177,18.34177,0,0,1-3,1.8,22.13359,22.13359,0,0,1-3.5,1.6c-1.7.7-3.5,1.3-5.3,1.9-1,.3-2,.5-2.9.8-1.2.3-2.5.6-3.8.9-2.7.5-5.4.9-8.2,1.2-1.4.2-2.7.3-4.1.4a24.36631,24.36631,0,0,1-2.7.1l-6.7.2c-2.6,0-5.3,0-7.9-.2-1-.1-1.9-.1-2.9-.2-.7-.1-1.4-.1-2.1-.2-1.1-.1-2.1-.3-3.2-.4-.9-.1-1.7-.3-2.6-.4q-1.65-.45-3.3-.9c-.4-.1-.9-.3-1.3-.4-.2,0-.5-.1-.7-.1-.3,0-.3.7-.4.9a10.86864,10.86864,0,0,0-.1,1.8,11.00042,11.00042,0,0,0,.4,3.1,4.26037,4.26037,0,0,0,1.5,2,8.58519,8.58519,0,0,0,3.5,1.2c1.1.2,2.3.2,3.4.3,1.7.1,3.5.1,5.2.1,1,0,2.1-.1,3.1-.1h2.9a112.81143,112.81143,0,0,0,14.2-.9,120.15208,120.15208,0,0,0,13.3-2.6,48.73253,48.73253,0,0,0,11.5-4.4c.5-.3,1-.6,1.6-.9.3-.1.5-.3.8-.4a30.62367,30.62367,0,0,0,2.9-2.1A11.64389,11.64389,0,0,0,137.1,159Zm7.6-2.1h0c-.3,0-.5.4-.6.7-.1.4-.3.8-.4,1.2l-.7,2.1c-.3,1-.7,2-1,3-.1.3-.2.5-.3.8-.1.1-.1.3-.2.5a10.766,10.766,0,0,1-1.8,2.4c-.6.7-1.3,1.3-2,2q-1.2.9-2.4,1.8a7.10647,7.10647,0,0,0-1.5,1.5.43975.43975,0,0,0-.1.5c0,.2.2.2.4.2a.90151.90151,0,0,0,.5-.1c.3-.1.6-.1.9-.2s.6-.1.9-.2c.2,0,.3-.1.5-.1l2.1-.9a4.67224,4.67224,0,0,1,1-.5c.2-.1.4-.3.6-.4a3.12583,3.12583,0,0,0,.9-1.1,16.1784,16.1784,0,0,0,1-1.8,4.17876,4.17876,0,0,0,.4-1,12.13146,12.13146,0,0,0,.5-1.4l.7-2.9c.2-1,.4-1.9.6-2.9a6.75177,6.75177,0,0,0,.2-1.4c0-.3.1-.6.1-1a1.20681,1.20681,0,0,0-.3-.8Zm-81.9,24a9.42719,9.42719,0,0,0-1-1c-.2-.1-.3-.2-.5-.3l-.3-.3h0c-.1.2-.3.3-.4.5-.4.6-.8,1.2-1.2,1.7a16.17929,16.17929,0,0,0-1,1.8,10.90909,10.90909,0,0,1-.6,1.1h0a1.14049,1.14049,0,0,0,.3.6,3.04324,3.04324,0,0,0,.8.8c.4.3.7.7,1.1,1,.1.1.6.6.8.6a1.23448,1.23448,0,0,0,.8-.4,4.70774,4.70774,0,0,0,1.3-1.5,10.92963,10.92963,0,0,0,.8-1.5,2.74477,2.74477,0,0,0,.2-1.3,2.83618,2.83618,0,0,0-.4-1.3C63.2,181.4,63,181.1,62.8,180.9Zm-21.7,0a9.42719,9.42719,0,0,0-1-1c-.2-.1-.3-.2-.5-.3l-.3-.3h0c-.1.2-.3.3-.4.5-.4.6-.8,1.2-1.2,1.7a16.17929,16.17929,0,0,0-1,1.8l-.3.6a1.72869,1.72869,0,0,0,.1-1,2.83607,2.83607,0,0,0-.4-1.3c-.2-.2-.4-.5-.6-.7a9.42719,9.42719,0,0,0-1-1c-.2-.1-.3-.2-.5-.3l-.3-.3h0c-.1.2-.3.3-.4.5-.4.6-.8,1.2-1.2,1.7a16.17929,16.17929,0,0,0-1,1.8,10.91114,10.91114,0,0,1-.6,1.1h0a1.14056,1.14056,0,0,0,.3.6,3.04351,3.04351,0,0,0,.8.8c.4.3.7.7,1.1,1,.1.1.6.6.8.6a1.23448,1.23448,0,0,0,.8-.4,4.70759,4.70759,0,0,0,1.3-1.5c.2-.3.4-.7.6-1a2.18611,2.18611,0,0,0,.3.5,3.04336,3.04336,0,0,0,.8.8c.4.3.7.7,1.1,1,.1.1.6.6.8.6a1.2345,1.2345,0,0,0,.8-.4,4.70774,4.70774,0,0,0,1.3-1.5,10.92963,10.92963,0,0,0,.8-1.5,2.74477,2.74477,0,0,0,.2-1.3,2.83614,2.83614,0,0,0-.4-1.3C41.5,181.4,41.3,181.1,41.1,180.9Zm-16.7,0a9.42719,9.42719,0,0,0-1-1c-.2-.1-.3-.2-.5-.3l-.3-.3h0c-.1.2-.3.3-.4.5-.4.6-.8,1.2-1.2,1.7a16.17929,16.17929,0,0,0-1,1.8,10.90909,10.90909,0,0,1-.6,1.1h0a1.14056,1.14056,0,0,0,.3.6,3.04339,3.04339,0,0,0,.8.8c.4.3.7.7,1.1,1,.1.1.6.6.8.6a1.23448,1.23448,0,0,0,.8-.4,4.70759,4.70759,0,0,0,1.3-1.5,10.93072,10.93072,0,0,0,.8-1.5,2.74477,2.74477,0,0,0,.2-1.3,2.83607,2.83607,0,0,0-.4-1.3C24.8,181.4,24.6,181.1,24.4,180.9Zm-5.4.7c-.2-.2-.4-.5-.6-.7a9.42719,9.42719,0,0,0-1-1c-.2-.1-.3-.2-.5-.3l-.3-.3h0c-.1.2-.3.3-.4.5-.4.6-.8,1.2-1.2,1.7a16.17929,16.17929,0,0,0-1,1.8,10.90909,10.90909,0,0,1-.6,1.1h0a1.14056,1.14056,0,0,0,.3.6,3.04339,3.04339,0,0,0,.8.8c.4.3.7.7,1.1,1,.1.1.6.6.8.6a1.23448,1.23448,0,0,0,.8-.4,4.70759,4.70759,0,0,0,1.3-1.5,10.93072,10.93072,0,0,0,.8-1.5,2.74477,2.74477,0,0,0,.2-1.3A3.44583,3.44583,0,0,0,19,181.6ZM15.4,155c.4.3.7.7,1.1,1,.1.1.6.6.8.6a1.23453,1.23453,0,0,0,.8-.4,4.7078,4.7078,0,0,0,1.3-1.5,10.92963,10.92963,0,0,0,.8-1.5,2.74483,2.74483,0,0,0,.2-1.3,2.83614,2.83614,0,0,0-.4-1.3c-.2-.2-.4-.5-.6-.7a9.42907,9.42907,0,0,0-1-1c-.2-.1-.3-.2-.5-.3l-.3-.3h0c-.1.2-.3.3-.4.5-.4.6-.8,1.2-1.2,1.7a16.1778,16.1778,0,0,0-1,1.8,10.91085,10.91085,0,0,1-.6,1.1h0a1.14059,1.14059,0,0,0,.3.6A2.85484,2.85484,0,0,0,15.4,155Zm175.7-13.4a3.59829,3.59829,0,0,0-2.2-.9,5.813,5.813,0,0,1-2.5-.9,15.58315,15.58315,0,0,1-2-1.6h0c-.1.1-.2.3-.3.4a6.72187,6.72187,0,0,0-.6,1.2l-.4,1.3a10.46066,10.46066,0,0,0-1.3,2.3,5.09186,5.09186,0,0,0-.6,2.1,2.27944,2.27944,0,0,0,.3,1.1,1.75591,1.75591,0,0,0,.4.5c0,.5-.4.6-.9.6l-1.3-.3h0c-.5-.1-1.2.4-1.6.7a7.63664,7.63664,0,0,0-.9.9,6.46809,6.46809,0,0,1-.8.9,4.00166,4.00166,0,0,1-1.2,1,2.93439,2.93439,0,0,1-1.6.4c-.4,0-.9-.1-1.3-.1a3.29335,3.29335,0,0,1-1.3-.7c-.6-.5-.6-2.1-.6-2.8h0l.2-2.4.3-2.9a3.402,3.402,0,0,0,.1-1c0-.1,0-.5-.1-.5s-.2.2-.3.2l-2.4,5a2.34478,2.34478,0,0,0-.2,1.2c0,.6-.1,1.1-.1,1.7v1.6c-.1,2.4-.2,4.7-.3,7.1-.1,2.2-.1,4.4-.1,6.7a25.719,25.719,0,0,1-1,7.8,12.6915,12.6915,0,0,1-5.2,7.2,10.90608,10.90608,0,0,1-3.1,1.4,11.23555,11.23555,0,0,1-3.2.4,8.80326,8.80326,0,0,1-4.8-1.2,5.21035,5.21035,0,0,1-2.6-4.8,13.54449,13.54449,0,0,1,.8-4c.2-.5.4-.9.6-1.4q.45-1.05.9-2.1h0c.2-.3.3-.6.5-.9l1.4-2.8c.3-.8.6-1.6.9-2.5.3-1,.4-2,.6-2.9l.7-5.3.4-3.3.3-2a.76385.76385,0,0,0-.2-.5h0a1.38072,1.38072,0,0,0-.3.4,4.05421,4.05421,0,0,0-.5.9l-1.8,4.3-.7,1.8c-.1,1.3-.3,2.5-.4,3.8-.2,1.6-.5,3.2-.8,4.8-.2.8-.4,1.6-.6,2.3-.3,1-.6,2.1-.9,3.1h0c-.4.9-.8,1.7-1.2,2.6a14.26213,14.26213,0,0,0-.9,2.7,20.741,20.741,0,0,0-.6,5,9.07307,9.07307,0,0,0,1.9,5.9,6.98972,6.98972,0,0,0,5.6,2.3c6,0,9.9-3.9,12.6-8.8a29.40244,29.40244,0,0,0,2.8-6.9,39.95563,39.95563,0,0,0,1.4-10.3l.2-5.2v-.1h.3l1.1.1a5.27038,5.27038,0,0,0,3.6-2l1.3-1.9a3.44963,3.44963,0,0,1,.8-.9,2.01,2.01,0,0,1,.8-.4,2.20164,2.20164,0,0,1,.8-.1,1.70162,1.70162,0,0,1,.7.1h0a1.70162,1.70162,0,0,0,.7.1,1.85413,1.85413,0,0,0,.7-.2,2.17751,2.17751,0,0,0,.8-.5l1-1,.9-.9a2.65166,2.65166,0,0,1,.6-.5,3.59965,3.59965,0,0,1,2.2-.7c.3,0,.6.1.9.1h.9a3.33741,3.33741,0,0,0,2.3-.9,6.09019,6.09019,0,0,0,1.3-3.1A2.43037,2.43037,0,0,0,191.1,141.6Zm-5.4,3.2a2.66281,2.66281,0,0,1-1.2.3,3.07949,3.07949,0,0,1-1.3-.3c-.3-.2-.7-.4-.7-.8a2.23241,2.23241,0,0,1,.6-1.3,1.85473,1.85473,0,0,1,1.2-.7c1.4,0,1.9.8,1.9,2.1A.66623.66623,0,0,1,185.7,144.8Zm3.3.5a7.56794,7.56794,0,0,1-1.5-.1.66116.66116,0,0,1-.6-.7,5.00933,5.00933,0,0,1,.7-.8l.6-.6a4.07477,4.07477,0,0,1,1.8.5c.3.2.6.4.6.8C190.5,145.2,189.6,145.3,189,145.3Zm-19.4-12.8a16.17941,16.17941,0,0,0-1,1.8,10.90681,10.90681,0,0,1-.6,1.1h0a1.14059,1.14059,0,0,0,.3.6,3.04324,3.04324,0,0,0,.8.8c.4.3.7.7,1.1,1,.1.1.6.6.8.6a1.2345,1.2345,0,0,0,.8-.4,4.70759,4.70759,0,0,0,1.3-1.5c.2-.3.4-.7.6-1a2.18553,2.18553,0,0,0,.3.5,3.04339,3.04339,0,0,0,.8.8c.4.3.7.7,1.1,1,.1.1.6.6.8.6a1.23448,1.23448,0,0,0,.8-.4,4.70759,4.70759,0,0,0,1.3-1.5,10.92963,10.92963,0,0,0,.8-1.5,2.74477,2.74477,0,0,0,.2-1.3,2.83618,2.83618,0,0,0-.4-1.3c-.2-.2-.4-.5-.6-.7a9.42813,9.42813,0,0,0-1-1c-.2-.1-.3-.2-.5-.3l-.3-.3h0c-.1.2-.3.3-.4.5-.4.6-.8,1.2-1.2,1.7a16.18163,16.18163,0,0,0-1,1.8l-.3.6a1.7287,1.7287,0,0,0,.1-1,2.83618,2.83618,0,0,0-.4-1.3c-.2-.2-.4-.5-.6-.7a9.42908,9.42908,0,0,0-1-1c-.2-.1-.3-.2-.5-.3l-.3-.3h0c-.1.2-.3.3-.4.5A18.19021,18.19021,0,0,0,169.6,132.5Z"></path></g></g><g id="Group_2" data-name="Group 2"><g id="Shape_2" data-name="Shape 2"><ellipse class="cls-3" cx="94.9" cy="62.2" rx="62.3" ry="62.2"></ellipse></g><g id="Shape_1" data-name="Shape 1"><path class="cls-2" d="M95.2,115.5c1.6-5.4,8.6-6.1,13.1-7.6,15.5-5.4,31.3-11.4,41.5-21.7-20,5.4-37.2,16.7-54.6,22.8,2.3-5.1,8.7-6.2,13.6-8.8C120.5,94.1,135,88,144,79.7c1.6-1.5,4-3.9,3.4-5.9-16,7.1-32.2,17.2-46,26.9-.1.1-5.3,4.5-6.3,3.5-2.2-2.3,5.3-5.6,5.7-5.9,17.3-11.9,36.3-25.2,43.8-43.3-7.9,7.5-17.3,14-25.6,21.7-8.2,7.5-15.5,16.5-23.9,22.3,1.4-6.4,7.9-8.8,11.9-12.9,12.7-13,24.1-28,30.7-45.1C123,58,109.8,76.6,95.1,93.7c1.1-6.1,5.7-10.5,9.1-15.2,10.5-14.5,22.1-28.4,25.6-48-12,18.1-23.1,40.2-34.7,56.8,6.4-20.9,23.1-39.4,25.6-64.4-10.8,17-17.2,38.5-25,58.6,3.8-19.5,12.1-42.6,13.6-64.4-8.1,14.3-9.9,35.1-14.2,53.3,1.6-17.9,1.7-39.1-1.1-55.6-2.8,15.5.3,40-1.7,54.5C90,49.6,86.8,30.9,78.7,17.2c2,11.1,3.8,22.3,6.3,32.8,2.5,10.7,6.6,20.3,7.4,30.5-6.9-20.8-14-41.4-25.6-57.4C71,48.6,86.7,65.4,92.9,86.9,81.1,68.2,71,47.8,58.2,30.1c5,19.6,15.7,34,25.6,48,3.3,4.6,8.9,8.3,9.1,14.6C78.7,76.1,64.8,56,50.3,41.7c8,17.3,19.8,31.7,32.4,43.9,3.9,3.8,10.6,7.5,10.2,13.5-16-15.1-31.3-31-49.4-43.9,7.7,16.8,22.4,28,36.9,37.5,4.6,3,11.8,5.3,12.5,11.7-16.7-11-32.3-23-52.2-30.5C49.9,86.3,67,93.7,81,100.8c4.4,2.2,11.5,3.2,12.5,8.8C75.5,102.2,58.2,91,39,86.7c12.4,11.7,32.4,17.4,48.9,24,2.2.9,7,.8,5.7,5.3C77.2,109.1,58.1,101.8,39,99.6c15.2,9.1,34.3,14.3,54.6,18.2.3,2.1-.9,5.6,1.7,5.3.1-1.8-.4-4.3.6-5.3,20.2-3.6,39.3-8.3,53.4-18.2a218.31409,218.31409,0,0,0-28.4,7C111.8,109.6,103.6,113.7,95.2,115.5Z"></path></g></g></svg>