<svg xmlns="http://www.w3.org/2000/svg" id="Layer_1" data-name="Layer 1" viewBox="30.526 -1.292 128.509 127.658">
  <defs>
    <style>.cls-1{isolation:isolate;}.cls-2{fill:#004525;fill-rule:evenodd;}.cls-3{fill:#ffe965;}</style>
  </defs>
  <g id="Group_2" data-name="Group 2">
    <g id="Shape_2" data-name="Shape 2">
      <ellipse class="cls-3" cx="94.9" cy="62.2" rx="62.3" ry="62.2"></ellipse>
    </g>
    <g id="Shape_1" data-name="Shape 1">
      <path class="cls-2" d="M95.2,115.5c1.6-5.4,8.6-6.1,13.1-7.6,15.5-5.4,31.3-11.4,41.5-21.7-20,5.4-37.2,16.7-54.6,22.8,2.3-5.1,8.7-6.2,13.6-8.8C120.5,94.1,135,88,144,79.7c1.6-1.5,4-3.9,3.4-5.9-16,7.1-32.2,17.2-46,26.9-.1.1-5.3,4.5-6.3,3.5-2.2-2.3,5.3-5.6,5.7-5.9,17.3-11.9,36.3-25.2,43.8-43.3-7.9,7.5-17.3,14-25.6,21.7-8.2,7.5-15.5,16.5-23.9,22.3,1.4-6.4,7.9-8.8,11.9-12.9,12.7-13,24.1-28,30.7-45.1C123,58,109.8,76.6,95.1,93.7c1.1-6.1,5.7-10.5,9.1-15.2,10.5-14.5,22.1-28.4,25.6-48-12,18.1-23.1,40.2-34.7,56.8,6.4-20.9,23.1-39.4,25.6-64.4-10.8,17-17.2,38.5-25,58.6,3.8-19.5,12.1-42.6,13.6-64.4-8.1,14.3-9.9,35.1-14.2,53.3,1.6-17.9,1.7-39.1-1.1-55.6-2.8,15.5.3,40-1.7,54.5C90,49.6,86.8,30.9,78.7,17.2c2,11.1,3.8,22.3,6.3,32.8,2.5,10.7,6.6,20.3,7.4,30.5-6.9-20.8-14-41.4-25.6-57.4C71,48.6,86.7,65.4,92.9,86.9,81.1,68.2,71,47.8,58.2,30.1c5,19.6,15.7,34,25.6,48,3.3,4.6,8.9,8.3,9.1,14.6C78.7,76.1,64.8,56,50.3,41.7c8,17.3,19.8,31.7,32.4,43.9,3.9,3.8,10.6,7.5,10.2,13.5-16-15.1-31.3-31-49.4-43.9,7.7,16.8,22.4,28,36.9,37.5,4.6,3,11.8,5.3,12.5,11.7-16.7-11-32.3-23-52.2-30.5C49.9,86.3,67,93.7,81,100.8c4.4,2.2,11.5,3.2,12.5,8.8C75.5,102.2,58.2,91,39,86.7c12.4,11.7,32.4,17.4,48.9,24,2.2.9,7,.8,5.7,5.3C77.2,109.1,58.1,101.8,39,99.6c15.2,9.1,34.3,14.3,54.6,18.2.3,2.1-.9,5.6,1.7,5.3.1-1.8-.4-4.3.6-5.3,20.2-3.6,39.3-8.3,53.4-18.2a218.31409,218.31409,0,0,0-28.4,7C111.8,109.6,103.6,113.7,95.2,115.5Z"></path>
    </g>
  </g>
</svg>